<svg preserveAspectRatio="none" overflow="visible" style="display: block;" width="114.119" height="58.8947" viewBox="0 0 114.119 58.8947" fill="none" xmlns="http://www.w3.org/2000/svg">
<g id="Group">
<path id="Vector" d="M111.895 5.55074C110.335 4.54807 108.539 3.72889 106.619 3.13253C103.087 2.03811 98.9976 1.22548 94.7445 0.616017C94.502 0.917474 94.2137 1.18616 93.8925 1.41553C93.8336 1.48107 93.768 1.54005 93.709 1.59903C93.6107 1.74976 93.4993 1.90049 93.3748 2.03811C95.1573 2.28059 96.9399 2.54927 98.7224 2.87039C103.277 3.68957 115.047 6.35681 111.737 10.2954C109.365 13.1199 102.34 15.1646 98.054 16.2262C75.5233 21.7901 38.6342 23.2253 15.8152 19.2343C11.6342 18.5003 5.12007 17.0716 2.52492 14.6075C1.46982 13.6049 1.55502 12.3466 2.63633 11.3439C7.95114 6.41579 25.8682 3.5585 34.3024 2.53617C38.3262 2.04466 42.35 1.66457 46.3738 1.35656C45.8626 1.22549 45.4235 1.00923 45.0434 0.727429C44.5388 0.563594 44.1063 0.314564 43.7393 0C40.148 0.301457 36.5568 0.655339 32.959 1.11408C24.125 2.23471 11.0312 4.48253 3.78973 8.50632C2.74774 9.08957 1.83681 9.75802 1.10939 10.5444C0.32953 11.3767 -0.0636742 12.4973 0.00841328 13.6376L0.0805008 14.7779C0.0936076 15.0007 0.126375 15.2236 0.178802 15.4398C0.893123 18.5396 1.46982 21.6262 2.47905 24.7784C8.17396 42.4989 20.5337 54.2098 41.3408 57.8469C41.3342 57.8469 41.3277 57.8469 41.3211 57.8535C41.6553 57.8731 41.9502 57.9387 42.2189 58.0435C42.5663 58.0632 42.8874 58.1353 43.1692 58.2467C43.4051 58.2598 43.6345 58.2926 43.8376 58.3515C44.0866 58.3581 44.316 58.3974 44.5323 58.4564C44.7616 58.4564 44.9779 58.4826 45.1811 58.5285C45.1811 58.5285 45.1811 58.5285 45.1876 58.5285C45.2269 58.5285 45.2663 58.5285 45.3056 58.5285C45.4563 58.5023 45.607 58.4826 45.7709 58.4761C45.9413 58.4695 46.1051 58.4761 46.2624 58.4957C46.2951 58.4957 46.3279 58.4826 46.3607 58.4761C54.6638 59.2363 62.8818 58.9938 71.0736 57.4799C71.0998 57.4799 71.1326 57.4799 71.1588 57.4865C71.4864 57.3489 71.86 57.2571 72.2794 57.2375C72.3449 57.2375 72.4105 57.2375 72.476 57.2375C72.7578 57.1392 73.0658 57.0736 73.4066 57.0605C73.4525 57.0605 73.4983 57.0671 73.5442 57.0671C73.8719 56.9229 74.2454 56.8312 74.678 56.818C74.7107 56.818 74.7369 56.818 74.7631 56.818C75.0253 56.6935 75.3267 56.6018 75.6544 56.5625C75.8182 56.51 75.9821 56.4642 76.1656 56.4445C76.1066 56.4249 76.0476 56.4117 75.9952 56.3921C92.0183 52.0275 103.323 42.6234 109.385 29.1823C112.091 23.1794 113.356 16.9864 114.057 10.6165C114.287 8.51943 113.946 6.87453 111.895 5.55074ZM110.42 20.8988C108.448 28.2976 104.883 35.2573 99.6202 40.7819C99.2663 41.293 98.8928 41.6469 98.4341 42.0991C85.4976 54.9438 66.4796 58.4302 47.6255 56.9753C33.6143 55.894 21.2283 50.743 12.9645 40.736C9.00624 35.9454 6.23415 30.5258 4.35988 24.7784C3.3441 21.6656 6.20138 18.6641 9.36668 19.5029C9.51086 19.5423 9.66158 19.5816 9.81231 19.6209C15.5662 21.0758 21.4184 21.7901 27.3034 22.3144C46.8849 24.0576 71.9517 22.9566 91.4022 19.3457C96.0945 18.4741 100.511 17.4386 104.948 15.9444C104.974 15.9379 105.001 15.9248 105.02 15.9182C108.179 14.8435 111.279 17.668 110.414 20.8988H110.42Z" fill="#BB6C2A"/>
<path id="Vector_2" d="M25.3308 22.1243C26.5825 22.2488 27.6966 22.9435 28.3781 23.992C35.3575 34.792 46.6621 41.4896 61.0075 43.744C69.6908 45.1071 78.4593 45.035 87.1819 43.803C91.5923 43.1804 95.5506 42.0729 99.8037 40.7687C99.4498 41.2799 99.0763 41.6338 98.6175 42.086C85.6549 54.9306 66.5976 58.4236 47.7041 56.9622C33.6667 55.8809 21.2546 50.7365 12.971 40.7294C9.01279 35.9454 6.2407 30.5389 4.36642 24.8046C3.35065 21.6918 6.13584 18.6772 9.31425 19.4833L9.81886 19.6143C14.924 20.9053 20.1143 21.6131 25.3308 22.1177V22.1243Z" fill="#BB6C2A"/>
</g>
</svg>
